/vscmnt/brussel_pixiu_data/_data_brussel/112/vsc11236/PredSimResults/SUBJ07mtu3D/worker10.mot
version=1
nRows=4
nColumns=50
inDegrees=yes
endheader
                time	         pelvis_tilt	         pelvis_list	     pelvis_rotation	           pelvis_tx	           pelvis_ty	           pelvis_tz	       hip_flexion_r	     hip_adduction_r	      hip_rotation_r	        knee_angle_r	       ankle_angle_r	         mtp_angle_r	       hip_flexion_l	     hip_adduction_l	      hip_rotation_l	        knee_angle_l	       ankle_angle_l	         mtp_angle_l	    lumbar_extension	      lumbar_bending	     lumbar_rotation	 ercspn_r/activation	 intobl_r/activation	 extobl_r/activation	    abd_r/activation	    add_r/activation	hamstrings_r/activation	bifemsh_r/activation	glut_max_r/activation	iliopsoas_r/activation	rect_fem_r/activation	  vasti_r/activation	gastroc_r/activation	 soleus_r/activation	tib_ant_r/activation	 ercspn_l/activation	 intobl_l/activation	 extobl_l/activation	    abd_l/activation	    add_l/activation	hamstrings_l/activation	bifemsh_l/activation	glut_max_l/activation	iliopsoas_l/activation	rect_fem_l/activation	  vasti_l/activation	gastroc_l/activation	 soleus_l/activation	tib_ant_l/activation	
          1.08786074	         -4.09575297	         -0.04168474	          8.51803017	          1.32719010	          0.85027800	         -0.01390229	         29.51209589	         -2.30090389	         -3.80175380	         -5.68057528	          2.59809613	          0.26778032	        -14.52406823	          0.37273350	          4.59520698	         -7.51438521	          8.98397272	         25.49806805	        -10.02382052	         -1.48456542	         -2.72761974	          0.10894975	          0.16515327	          0.01000000	          0.03735722	          0.11754963	          0.04408211	          0.12449998	          0.06514678	          0.01889709	          0.01181311	          0.00999999	          0.00999999	          0.00999999	          0.41677978	          0.10025663	          0.00999999	          0.00999999	          0.03792373	          0.01000000	          0.01872155	          0.14847332	          0.01903138	          0.29124980	          0.01000001	          0.00999999	          0.11233496	          0.26549452	          0.01848026	
          1.09873935	         -4.11263361	          0.02637212	          8.51246114	          1.34265347	          0.84878663	         -0.01398348	         29.20848765	         -2.13014422	         -3.46378391	         -6.96069189	          2.38007059	          0.25361304	        -14.91919449	          0.37741760	          4.23921245	         -8.66799825	          8.15210891	         27.16476670	         -9.89028753	         -1.05361512	         -2.90769910	          0.09222790	          0.14472024	          0.00999999	          0.03162355	          0.09950786	          0.04608084	          0.11980467	          0.11404457	          0.01599672	          0.01000001	          0.00999999	          0.02024453	          0.01648510	          0.43785628	          0.12354141	          0.00999999	          0.01000001	          0.03210311	          0.01317255	          0.01584829	          0.12568531	          0.01611040	          0.24654814	          0.01000000	          0.00999999	          0.09509354	          0.23090029	          0.01564387	
          1.10961795	         -4.12509581	          0.07744094	          8.45577407	          1.35825135	          0.84751505	         -0.01399288	         28.84594742	         -1.99488475	         -3.12461751	         -8.18156937	          2.04417897	          0.24941637	        -15.17251109	          0.37852824	          3.84675319	        -10.08702790	          7.21353434	         28.79164058	         -9.75020468	         -0.59642786	         -3.07285303	          0.11659378	          0.12250826	          0.00999999	          0.10268741	          0.10775775	          0.04692624	          0.10141689	          0.12270046	          0.01354151	          0.00999999	          0.00999999	          0.01713736	          0.01395493	          0.47936006	          0.14221163	          0.00999999	          0.00999999	          0.02717585	          0.01115080	          0.01341588	          0.10639485	          0.01363774	          0.21010787	          0.01000000	          0.00999999	          0.08049837	          0.19546120	          0.01324281	
          1.12049656	         -4.13448021	          0.13416832	          8.34910106	          1.37380765	          0.84663446	         -0.01389923	         28.49915006	         -1.86676225	         -2.85824004	         -9.40561725	          1.69923417	          0.22771993	        -15.20842598	          0.40113306	          3.42313472	        -11.87733862	          6.13172569	         30.33610519	         -9.62399007	         -0.14423111	         -3.22104558	          0.12289423	          0.10370542	          0.00999999	          0.14962290	          0.13029568	          0.04257948	          0.08585120	          0.14255921	          0.01146313	          0.00999999	          0.00999999	          0.01450708	          0.01181310	          0.49678462	          0.18324319	          0.00999999	          0.00999999	          0.02300484	          0.01000011	          0.01136114	          0.09006513	          0.01154459	          0.17786004	          0.01000000	          0.00999999	          0.06814330	          0.16546138	          0.01121028	
